<svg
  xmlns="http://www.w3.org/2000/svg"
  viewBox="0 0 448 512"
>
  <defs>
    <linearGradient id="instaGradient" x1="0%" y1="0%" x2="100%" y2="100%">
      <stop offset="0%" stop-color="#f09433" />
      <stop offset="25%" stop-color="#e6683c" />
      <stop offset="50%" stop-color="#dc2743" />
      <stop offset="75%" stop-color="#cc2366" />
      <stop offset="100%" stop-color="#bc1888" />
    </linearGradient>
  </defs>
  <path
    fill="url(#instaGradient)"
    d="M224.1 141c-63.6 0-114.9 51.3-114.9 114.9s51.3 114.9 114.9 114.9 114.9-51.3 114.9-114.9S287.6 141 224.1 141zm0 189.6
    c-41.2 0-74.7-33.5-74.7-74.7s33.5-74.7 74.7-74.7 74.7 33.5 74.7 74.7-33.5 74.7-74.7 74.7zm146.4-194.3
    c0 14.9-12.1 27-27 27s-27-12.1-27-27 12.1-27 27-27 27 12.1 27 27zm76.1 27.2
    c-1.7-35.7-9.9-67.3-36.2-93.5S375.4 0 339.7 1.7c-35.7 1.7-142.9 1.7-178.6 0
    C125.4 0 93.8 8.2 67.6 34.5S0 92.6 1.7 128.3c1.7 35.7 1.7 142.9 0 178.6
    -1.7 35.7 6.5 67.3 32.8 93.5s57.8 34.5 93.5 36.2c35.7 1.7 142.9 1.7 178.6 0
    35.7-1.7 67.3-9.9 93.5-36.2s34.5-57.8 36.2-93.5c1.7-35.7 1.7-142.9 0-178.6zM398.8 388
    c-7.8 19.6-22.9 34.7-42.5 42.5-29.4 11.7-99.2 9-132.3 9s-102.9 2.6-132.3-9
    c-19.6-7.8-34.7-22.9-42.5-42.5-11.7-29.4-9-99.2-9-132.3s-2.6-102.9 9-132.3
    c7.8-19.6 22.9-34.7 42.5-42.5 29.4-11.7 99.2-9 132.3-9s102.9-2.6 132.3 9
    c19.6 7.8 34.7 22.9 42.5 42.5 11.7 29.4 9 99.2 9 132.3s2.6 102.9-9 132.3z"
  />
</svg>
